<mxfile host="app.diagrams.net" agent="Mozilla/5.0 (Windows NT 10.0; Win64; x64) AppleWebKit/537.36 (KHTML, like Gecko) Chrome/126.0.0.0 Safari/537.36 OPR/112.0.0.0" version="24.7.16">
  <diagram name="Diagrama de Clases" id="c4acf3e9-155e-7222-9cf6-157b1a14988f">
    <mxGraphModel grid="0" page="1" gridSize="10" guides="1" tooltips="1" connect="1" arrows="1" fold="1" pageScale="1" pageWidth="850" pageHeight="1100" background="#B3B3B3" math="0" shadow="0">
      <root>
        <mxCell id="0" />
        <mxCell id="1" parent="0" />
        <mxCell id="ZTarSemHIilfZT3Sb3_L-1" value="Usuario" style="swimlane;fontStyle=1;align=center;verticalAlign=top;childLayout=stackLayout;horizontal=1;startSize=26;horizontalStack=0;resizeParent=1;resizeParentMax=0;resizeLast=0;collapsible=1;marginBottom=0;whiteSpace=wrap;html=1;labelBackgroundColor=none;fillColor=#bac8d3;strokeColor=#23445d;rounded=1;" vertex="1" parent="1">
          <mxGeometry x="-820" y="49" width="160" height="216" as="geometry" />
        </mxCell>
        <mxCell id="ZTarSemHIilfZT3Sb3_L-2" value="-idUsuario: int" style="text;strokeColor=none;fillColor=none;align=left;verticalAlign=top;spacingLeft=4;spacingRight=4;overflow=hidden;rotatable=0;points=[[0,0.5],[1,0.5]];portConstraint=eastwest;whiteSpace=wrap;html=1;labelBackgroundColor=none;fontColor=#FFFFFF;rounded=1;" vertex="1" parent="ZTarSemHIilfZT3Sb3_L-1">
          <mxGeometry y="26" width="160" height="26" as="geometry" />
        </mxCell>
        <mxCell id="ZTarSemHIilfZT3Sb3_L-50" value="-rolUsuario: string" style="text;strokeColor=none;fillColor=none;align=left;verticalAlign=top;spacingLeft=4;spacingRight=4;overflow=hidden;rotatable=0;points=[[0,0.5],[1,0.5]];portConstraint=eastwest;whiteSpace=wrap;html=1;labelBackgroundColor=none;fontColor=#FFFFFF;rounded=1;" vertex="1" parent="ZTarSemHIilfZT3Sb3_L-1">
          <mxGeometry y="52" width="160" height="26" as="geometry" />
        </mxCell>
        <mxCell id="ZTarSemHIilfZT3Sb3_L-17" value="-nombre: string" style="text;strokeColor=none;fillColor=none;align=left;verticalAlign=top;spacingLeft=4;spacingRight=4;overflow=hidden;rotatable=0;points=[[0,0.5],[1,0.5]];portConstraint=eastwest;whiteSpace=wrap;html=1;labelBackgroundColor=none;fontColor=#FFFFFF;rounded=1;" vertex="1" parent="ZTarSemHIilfZT3Sb3_L-1">
          <mxGeometry y="78" width="160" height="26" as="geometry" />
        </mxCell>
        <mxCell id="ZTarSemHIilfZT3Sb3_L-18" value="-correo: string" style="text;strokeColor=none;fillColor=none;align=left;verticalAlign=top;spacingLeft=4;spacingRight=4;overflow=hidden;rotatable=0;points=[[0,0.5],[1,0.5]];portConstraint=eastwest;whiteSpace=wrap;html=1;labelBackgroundColor=none;fontColor=#FFFFFF;rounded=1;" vertex="1" parent="ZTarSemHIilfZT3Sb3_L-1">
          <mxGeometry y="104" width="160" height="26" as="geometry" />
        </mxCell>
        <mxCell id="ZTarSemHIilfZT3Sb3_L-51" value="-clave: string" style="text;strokeColor=none;fillColor=none;align=left;verticalAlign=top;spacingLeft=4;spacingRight=4;overflow=hidden;rotatable=0;points=[[0,0.5],[1,0.5]];portConstraint=eastwest;whiteSpace=wrap;html=1;labelBackgroundColor=none;fontColor=#FFFFFF;rounded=1;" vertex="1" parent="ZTarSemHIilfZT3Sb3_L-1">
          <mxGeometry y="130" width="160" height="26" as="geometry" />
        </mxCell>
        <mxCell id="ZTarSemHIilfZT3Sb3_L-19" value="-telefono: int" style="text;strokeColor=none;fillColor=none;align=left;verticalAlign=top;spacingLeft=4;spacingRight=4;overflow=hidden;rotatable=0;points=[[0,0.5],[1,0.5]];portConstraint=eastwest;whiteSpace=wrap;html=1;labelBackgroundColor=none;fontColor=#FFFFFF;rounded=1;" vertex="1" parent="ZTarSemHIilfZT3Sb3_L-1">
          <mxGeometry y="156" width="160" height="26" as="geometry" />
        </mxCell>
        <mxCell id="ZTarSemHIilfZT3Sb3_L-3" value="" style="line;strokeWidth=1;fillColor=none;align=left;verticalAlign=middle;spacingTop=-1;spacingLeft=3;spacingRight=3;rotatable=0;labelPosition=right;points=[];portConstraint=eastwest;labelBackgroundColor=none;strokeColor=#EEEEEE;fontColor=#FFFFFF;rounded=1;" vertex="1" parent="ZTarSemHIilfZT3Sb3_L-1">
          <mxGeometry y="182" width="160" height="8" as="geometry" />
        </mxCell>
        <mxCell id="6bT-CCXkzcgCeVcVH5FZ-6" value="+RegistrarUsuario()" style="text;strokeColor=none;fillColor=none;align=left;verticalAlign=top;spacingLeft=4;spacingRight=4;overflow=hidden;rotatable=0;points=[[0,0.5],[1,0.5]];portConstraint=eastwest;whiteSpace=wrap;html=1;labelBackgroundColor=none;fontColor=#FFFFFF;rounded=1;" vertex="1" parent="ZTarSemHIilfZT3Sb3_L-1">
          <mxGeometry y="190" width="160" height="26" as="geometry" />
        </mxCell>
        <mxCell id="ZTarSemHIilfZT3Sb3_L-5" value="Cliente" style="swimlane;fontStyle=1;align=center;verticalAlign=top;childLayout=stackLayout;horizontal=1;startSize=26;horizontalStack=0;resizeParent=1;resizeParentMax=0;resizeLast=0;collapsible=1;marginBottom=0;whiteSpace=wrap;html=1;labelBackgroundColor=none;fillColor=#bac8d3;strokeColor=#23445d;rounded=1;" vertex="1" parent="1">
          <mxGeometry x="-582" y="246" width="160" height="138" as="geometry" />
        </mxCell>
        <mxCell id="ZTarSemHIilfZT3Sb3_L-6" value="-idCliente: int" style="text;strokeColor=none;fillColor=none;align=left;verticalAlign=top;spacingLeft=4;spacingRight=4;overflow=hidden;rotatable=0;points=[[0,0.5],[1,0.5]];portConstraint=eastwest;whiteSpace=wrap;html=1;labelBackgroundColor=none;fontColor=#FFFFFF;rounded=1;" vertex="1" parent="ZTarSemHIilfZT3Sb3_L-5">
          <mxGeometry y="26" width="160" height="26" as="geometry" />
        </mxCell>
        <mxCell id="ZTarSemHIilfZT3Sb3_L-12" value="-direccionCliente: string" style="text;strokeColor=none;fillColor=none;align=left;verticalAlign=top;spacingLeft=4;spacingRight=4;overflow=hidden;rotatable=0;points=[[0,0.5],[1,0.5]];portConstraint=eastwest;whiteSpace=wrap;html=1;labelBackgroundColor=none;fontColor=#FFFFFF;rounded=1;" vertex="1" parent="ZTarSemHIilfZT3Sb3_L-5">
          <mxGeometry y="52" width="160" height="26" as="geometry" />
        </mxCell>
        <mxCell id="ZTarSemHIilfZT3Sb3_L-13" value="" style="line;strokeWidth=1;fillColor=none;align=left;verticalAlign=middle;spacingTop=-1;spacingLeft=3;spacingRight=3;rotatable=0;labelPosition=right;points=[];portConstraint=eastwest;labelBackgroundColor=none;strokeColor=#EEEEEE;fontColor=#FFFFFF;rounded=1;" vertex="1" parent="ZTarSemHIilfZT3Sb3_L-5">
          <mxGeometry y="78" width="160" height="8" as="geometry" />
        </mxCell>
        <mxCell id="6bT-CCXkzcgCeVcVH5FZ-11" value="+Login()" style="text;strokeColor=none;fillColor=none;align=left;verticalAlign=top;spacingLeft=4;spacingRight=4;overflow=hidden;rotatable=0;points=[[0,0.5],[1,0.5]];portConstraint=eastwest;whiteSpace=wrap;html=1;labelBackgroundColor=none;fontColor=#FFFFFF;rounded=1;" vertex="1" parent="ZTarSemHIilfZT3Sb3_L-5">
          <mxGeometry y="86" width="160" height="26" as="geometry" />
        </mxCell>
        <mxCell id="6bT-CCXkzcgCeVcVH5FZ-14" value="+ActualizarPerfil()" style="text;strokeColor=none;fillColor=none;align=left;verticalAlign=top;spacingLeft=4;spacingRight=4;overflow=hidden;rotatable=0;points=[[0,0.5],[1,0.5]];portConstraint=eastwest;whiteSpace=wrap;html=1;labelBackgroundColor=none;fontColor=#FFFFFF;rounded=1;" vertex="1" parent="ZTarSemHIilfZT3Sb3_L-5">
          <mxGeometry y="112" width="160" height="26" as="geometry" />
        </mxCell>
        <mxCell id="ZTarSemHIilfZT3Sb3_L-15" value="Admi" style="swimlane;fontStyle=1;align=center;verticalAlign=top;childLayout=stackLayout;horizontal=1;startSize=26;horizontalStack=0;resizeParent=1;resizeParentMax=0;resizeLast=0;collapsible=1;marginBottom=0;whiteSpace=wrap;html=1;labelBackgroundColor=none;fillColor=#bac8d3;strokeColor=#23445d;rounded=1;" vertex="1" parent="1">
          <mxGeometry x="-550" y="30" width="160" height="138" as="geometry" />
        </mxCell>
        <mxCell id="ZTarSemHIilfZT3Sb3_L-16" value="-idAdmi: int" style="text;strokeColor=none;fillColor=none;align=left;verticalAlign=top;spacingLeft=4;spacingRight=4;overflow=hidden;rotatable=0;points=[[0,0.5],[1,0.5]];portConstraint=eastwest;whiteSpace=wrap;html=1;labelBackgroundColor=none;fontColor=#FFFFFF;rounded=1;" vertex="1" parent="ZTarSemHIilfZT3Sb3_L-15">
          <mxGeometry y="26" width="160" height="26" as="geometry" />
        </mxCell>
        <mxCell id="ZTarSemHIilfZT3Sb3_L-20" value="" style="line;strokeWidth=1;fillColor=none;align=left;verticalAlign=middle;spacingTop=-1;spacingLeft=3;spacingRight=3;rotatable=0;labelPosition=right;points=[];portConstraint=eastwest;labelBackgroundColor=none;strokeColor=#EEEEEE;fontColor=#FFFFFF;rounded=1;" vertex="1" parent="ZTarSemHIilfZT3Sb3_L-15">
          <mxGeometry y="52" width="160" height="8" as="geometry" />
        </mxCell>
        <mxCell id="6bT-CCXkzcgCeVcVH5FZ-5" value="+Login()" style="text;strokeColor=none;fillColor=none;align=left;verticalAlign=top;spacingLeft=4;spacingRight=4;overflow=hidden;rotatable=0;points=[[0,0.5],[1,0.5]];portConstraint=eastwest;whiteSpace=wrap;html=1;labelBackgroundColor=none;fontColor=#FFFFFF;rounded=1;" vertex="1" parent="ZTarSemHIilfZT3Sb3_L-15">
          <mxGeometry y="60" width="160" height="26" as="geometry" />
        </mxCell>
        <mxCell id="ZTarSemHIilfZT3Sb3_L-21" value="&lt;div&gt;+ActuaizarCatalogo()&lt;/div&gt;" style="text;strokeColor=none;fillColor=none;align=left;verticalAlign=top;spacingLeft=4;spacingRight=4;overflow=hidden;rotatable=0;points=[[0,0.5],[1,0.5]];portConstraint=eastwest;whiteSpace=wrap;html=1;labelBackgroundColor=none;fontColor=#FFFFFF;rounded=1;" vertex="1" parent="ZTarSemHIilfZT3Sb3_L-15">
          <mxGeometry y="86" width="160" height="26" as="geometry" />
        </mxCell>
        <mxCell id="ZTarSemHIilfZT3Sb3_L-4" value="&lt;div&gt;+DefinirRol()&lt;/div&gt;" style="text;strokeColor=none;fillColor=none;align=left;verticalAlign=top;spacingLeft=4;spacingRight=4;overflow=hidden;rotatable=0;points=[[0,0.5],[1,0.5]];portConstraint=eastwest;whiteSpace=wrap;html=1;labelBackgroundColor=none;fontColor=#FFFFFF;rounded=1;" vertex="1" parent="ZTarSemHIilfZT3Sb3_L-15">
          <mxGeometry y="112" width="160" height="26" as="geometry" />
        </mxCell>
        <mxCell id="ZTarSemHIilfZT3Sb3_L-22" value="Pedido" style="swimlane;fontStyle=1;align=center;verticalAlign=top;childLayout=stackLayout;horizontal=1;startSize=26;horizontalStack=0;resizeParent=1;resizeParentMax=0;resizeLast=0;collapsible=1;marginBottom=0;whiteSpace=wrap;html=1;labelBackgroundColor=none;fillColor=#bac8d3;strokeColor=#23445d;rounded=1;" vertex="1" parent="1">
          <mxGeometry x="-582" y="484" width="160" height="190" as="geometry" />
        </mxCell>
        <mxCell id="ZTarSemHIilfZT3Sb3_L-23" value="idPedido" style="text;strokeColor=none;fillColor=none;align=left;verticalAlign=top;spacingLeft=4;spacingRight=4;overflow=hidden;rotatable=0;points=[[0,0.5],[1,0.5]];portConstraint=eastwest;whiteSpace=wrap;html=1;labelBackgroundColor=none;fontColor=#FFFFFF;rounded=1;" vertex="1" parent="ZTarSemHIilfZT3Sb3_L-22">
          <mxGeometry y="26" width="160" height="26" as="geometry" />
        </mxCell>
        <mxCell id="ZTarSemHIilfZT3Sb3_L-24" value="fechaPedido" style="text;strokeColor=none;fillColor=none;align=left;verticalAlign=top;spacingLeft=4;spacingRight=4;overflow=hidden;rotatable=0;points=[[0,0.5],[1,0.5]];portConstraint=eastwest;whiteSpace=wrap;html=1;labelBackgroundColor=none;fontColor=#FFFFFF;rounded=1;" vertex="1" parent="ZTarSemHIilfZT3Sb3_L-22">
          <mxGeometry y="52" width="160" height="26" as="geometry" />
        </mxCell>
        <mxCell id="ZTarSemHIilfZT3Sb3_L-26" value="" style="line;strokeWidth=1;fillColor=none;align=left;verticalAlign=middle;spacingTop=-1;spacingLeft=3;spacingRight=3;rotatable=0;labelPosition=right;points=[];portConstraint=eastwest;labelBackgroundColor=none;strokeColor=#EEEEEE;fontColor=#FFFFFF;rounded=1;" vertex="1" parent="ZTarSemHIilfZT3Sb3_L-22">
          <mxGeometry y="78" width="160" height="8" as="geometry" />
        </mxCell>
        <mxCell id="ZTarSemHIilfZT3Sb3_L-27" value="+RealizarPediodo()" style="text;strokeColor=none;fillColor=none;align=left;verticalAlign=top;spacingLeft=4;spacingRight=4;overflow=hidden;rotatable=0;points=[[0,0.5],[1,0.5]];portConstraint=eastwest;whiteSpace=wrap;html=1;labelBackgroundColor=none;fontColor=#FFFFFF;rounded=1;" vertex="1" parent="ZTarSemHIilfZT3Sb3_L-22">
          <mxGeometry y="86" width="160" height="26" as="geometry" />
        </mxCell>
        <mxCell id="6bT-CCXkzcgCeVcVH5FZ-28" value="+DetallesPediodo()" style="text;strokeColor=none;fillColor=none;align=left;verticalAlign=top;spacingLeft=4;spacingRight=4;overflow=hidden;rotatable=0;points=[[0,0.5],[1,0.5]];portConstraint=eastwest;whiteSpace=wrap;html=1;labelBackgroundColor=none;fontColor=#FFFFFF;rounded=1;" vertex="1" parent="ZTarSemHIilfZT3Sb3_L-22">
          <mxGeometry y="112" width="160" height="26" as="geometry" />
        </mxCell>
        <mxCell id="6bT-CCXkzcgCeVcVH5FZ-32" value="+ActualizarPedido()" style="text;strokeColor=none;fillColor=none;align=left;verticalAlign=top;spacingLeft=4;spacingRight=4;overflow=hidden;rotatable=0;points=[[0,0.5],[1,0.5]];portConstraint=eastwest;whiteSpace=wrap;html=1;labelBackgroundColor=none;fontColor=#FFFFFF;rounded=1;" vertex="1" parent="ZTarSemHIilfZT3Sb3_L-22">
          <mxGeometry y="138" width="160" height="26" as="geometry" />
        </mxCell>
        <mxCell id="6bT-CCXkzcgCeVcVH5FZ-29" value="+VerificarEstado()" style="text;strokeColor=none;fillColor=none;align=left;verticalAlign=top;spacingLeft=4;spacingRight=4;overflow=hidden;rotatable=0;points=[[0,0.5],[1,0.5]];portConstraint=eastwest;whiteSpace=wrap;html=1;labelBackgroundColor=none;fontColor=#FFFFFF;rounded=1;" vertex="1" parent="ZTarSemHIilfZT3Sb3_L-22">
          <mxGeometry y="164" width="160" height="26" as="geometry" />
        </mxCell>
        <mxCell id="ZTarSemHIilfZT3Sb3_L-28" value="Producto" style="swimlane;fontStyle=1;align=center;verticalAlign=top;childLayout=stackLayout;horizontal=1;startSize=26;horizontalStack=0;resizeParent=1;resizeParentMax=0;resizeLast=0;collapsible=1;marginBottom=0;whiteSpace=wrap;html=1;labelBackgroundColor=none;fillColor=#bac8d3;strokeColor=#23445d;rounded=1;" vertex="1" parent="1">
          <mxGeometry x="-360" y="261" width="160" height="138" as="geometry" />
        </mxCell>
        <mxCell id="6bT-CCXkzcgCeVcVH5FZ-15" value="-idProducto: int" style="text;strokeColor=none;fillColor=none;align=left;verticalAlign=top;spacingLeft=4;spacingRight=4;overflow=hidden;rotatable=0;points=[[0,0.5],[1,0.5]];portConstraint=eastwest;whiteSpace=wrap;html=1;labelBackgroundColor=none;fontColor=#FFFFFF;rounded=1;" vertex="1" parent="ZTarSemHIilfZT3Sb3_L-28">
          <mxGeometry y="26" width="160" height="26" as="geometry" />
        </mxCell>
        <mxCell id="6bT-CCXkzcgCeVcVH5FZ-17" value="-nombreProducto: string" style="text;strokeColor=none;fillColor=none;align=left;verticalAlign=top;spacingLeft=4;spacingRight=4;overflow=hidden;rotatable=0;points=[[0,0.5],[1,0.5]];portConstraint=eastwest;whiteSpace=wrap;html=1;labelBackgroundColor=none;fontColor=#FFFFFF;rounded=1;" vertex="1" parent="ZTarSemHIilfZT3Sb3_L-28">
          <mxGeometry y="52" width="160" height="26" as="geometry" />
        </mxCell>
        <mxCell id="ZTarSemHIilfZT3Sb3_L-30" value="" style="line;strokeWidth=1;fillColor=none;align=left;verticalAlign=middle;spacingTop=-1;spacingLeft=3;spacingRight=3;rotatable=0;labelPosition=right;points=[];portConstraint=eastwest;labelBackgroundColor=none;strokeColor=#EEEEEE;fontColor=#FFFFFF;rounded=1;" vertex="1" parent="ZTarSemHIilfZT3Sb3_L-28">
          <mxGeometry y="78" width="160" height="8" as="geometry" />
        </mxCell>
        <mxCell id="ZTarSemHIilfZT3Sb3_L-31" value="+EstadoProducto()" style="text;strokeColor=none;fillColor=none;align=left;verticalAlign=top;spacingLeft=4;spacingRight=4;overflow=hidden;rotatable=0;points=[[0,0.5],[1,0.5]];portConstraint=eastwest;whiteSpace=wrap;html=1;labelBackgroundColor=none;fontColor=#FFFFFF;rounded=1;" vertex="1" parent="ZTarSemHIilfZT3Sb3_L-28">
          <mxGeometry y="86" width="160" height="26" as="geometry" />
        </mxCell>
        <mxCell id="6bT-CCXkzcgCeVcVH5FZ-33" value="+DetallesProducto()" style="text;strokeColor=none;fillColor=none;align=left;verticalAlign=top;spacingLeft=4;spacingRight=4;overflow=hidden;rotatable=0;points=[[0,0.5],[1,0.5]];portConstraint=eastwest;whiteSpace=wrap;html=1;labelBackgroundColor=none;fontColor=#FFFFFF;rounded=1;" vertex="1" parent="ZTarSemHIilfZT3Sb3_L-28">
          <mxGeometry y="112" width="160" height="26" as="geometry" />
        </mxCell>
        <mxCell id="ZTarSemHIilfZT3Sb3_L-32" value="Proveedor" style="swimlane;fontStyle=1;align=center;verticalAlign=top;childLayout=stackLayout;horizontal=1;startSize=26;horizontalStack=0;resizeParent=1;resizeParentMax=0;resizeLast=0;collapsible=1;marginBottom=0;whiteSpace=wrap;html=1;labelBackgroundColor=none;fillColor=#bac8d3;strokeColor=#23445d;rounded=1;" vertex="1" parent="1">
          <mxGeometry x="-200" y="30" width="160" height="164" as="geometry" />
        </mxCell>
        <mxCell id="ZTarSemHIilfZT3Sb3_L-33" value="-idProveedor: int" style="text;strokeColor=none;fillColor=none;align=left;verticalAlign=top;spacingLeft=4;spacingRight=4;overflow=hidden;rotatable=0;points=[[0,0.5],[1,0.5]];portConstraint=eastwest;whiteSpace=wrap;html=1;labelBackgroundColor=none;fontColor=#FFFFFF;rounded=1;" vertex="1" parent="ZTarSemHIilfZT3Sb3_L-32">
          <mxGeometry y="26" width="160" height="26" as="geometry" />
        </mxCell>
        <mxCell id="ZTarSemHIilfZT3Sb3_L-34" value="-nombreProveedor: string" style="text;strokeColor=none;fillColor=none;align=left;verticalAlign=top;spacingLeft=4;spacingRight=4;overflow=hidden;rotatable=0;points=[[0,0.5],[1,0.5]];portConstraint=eastwest;whiteSpace=wrap;html=1;labelBackgroundColor=none;fontColor=#FFFFFF;rounded=1;" vertex="1" parent="ZTarSemHIilfZT3Sb3_L-32">
          <mxGeometry y="52" width="160" height="26" as="geometry" />
        </mxCell>
        <mxCell id="ZTarSemHIilfZT3Sb3_L-35" value="-correoProveedor string" style="text;strokeColor=none;fillColor=none;align=left;verticalAlign=top;spacingLeft=4;spacingRight=4;overflow=hidden;rotatable=0;points=[[0,0.5],[1,0.5]];portConstraint=eastwest;whiteSpace=wrap;html=1;labelBackgroundColor=none;fontColor=#FFFFFF;rounded=1;" vertex="1" parent="ZTarSemHIilfZT3Sb3_L-32">
          <mxGeometry y="78" width="160" height="26" as="geometry" />
        </mxCell>
        <mxCell id="ZTarSemHIilfZT3Sb3_L-36" value="-telefonoProveedor: int" style="text;strokeColor=none;fillColor=none;align=left;verticalAlign=top;spacingLeft=4;spacingRight=4;overflow=hidden;rotatable=0;points=[[0,0.5],[1,0.5]];portConstraint=eastwest;whiteSpace=wrap;html=1;labelBackgroundColor=none;fontColor=#FFFFFF;rounded=1;" vertex="1" parent="ZTarSemHIilfZT3Sb3_L-32">
          <mxGeometry y="104" width="160" height="26" as="geometry" />
        </mxCell>
        <mxCell id="ZTarSemHIilfZT3Sb3_L-37" value="" style="line;strokeWidth=1;fillColor=none;align=left;verticalAlign=middle;spacingTop=-1;spacingLeft=3;spacingRight=3;rotatable=0;labelPosition=right;points=[];portConstraint=eastwest;labelBackgroundColor=none;strokeColor=#EEEEEE;fontColor=#FFFFFF;rounded=1;" vertex="1" parent="ZTarSemHIilfZT3Sb3_L-32">
          <mxGeometry y="130" width="160" height="8" as="geometry" />
        </mxCell>
        <mxCell id="6bT-CCXkzcgCeVcVH5FZ-27" value="&lt;div&gt;+DetallesProveedor()&lt;/div&gt;" style="text;strokeColor=none;fillColor=none;align=left;verticalAlign=top;spacingLeft=4;spacingRight=4;overflow=hidden;rotatable=0;points=[[0,0.5],[1,0.5]];portConstraint=eastwest;whiteSpace=wrap;html=1;labelBackgroundColor=none;fontColor=#FFFFFF;rounded=1;" vertex="1" parent="ZTarSemHIilfZT3Sb3_L-32">
          <mxGeometry y="138" width="160" height="26" as="geometry" />
        </mxCell>
        <mxCell id="ZTarSemHIilfZT3Sb3_L-44" value="Factura" style="swimlane;fontStyle=1;align=center;verticalAlign=top;childLayout=stackLayout;horizontal=1;startSize=26;horizontalStack=0;resizeParent=1;resizeParentMax=0;resizeLast=0;collapsible=1;marginBottom=0;whiteSpace=wrap;html=1;labelBackgroundColor=none;fillColor=#bac8d3;strokeColor=#23445d;rounded=1;" vertex="1" parent="1">
          <mxGeometry x="-302" y="523" width="160" height="112" as="geometry" />
        </mxCell>
        <mxCell id="ZTarSemHIilfZT3Sb3_L-45" value="idFactura" style="text;strokeColor=none;fillColor=none;align=left;verticalAlign=top;spacingLeft=4;spacingRight=4;overflow=hidden;rotatable=0;points=[[0,0.5],[1,0.5]];portConstraint=eastwest;whiteSpace=wrap;html=1;labelBackgroundColor=none;fontColor=#FFFFFF;rounded=1;" vertex="1" parent="ZTarSemHIilfZT3Sb3_L-44">
          <mxGeometry y="26" width="160" height="26" as="geometry" />
        </mxCell>
        <mxCell id="ZTarSemHIilfZT3Sb3_L-46" value="fechaFactura" style="text;strokeColor=none;fillColor=none;align=left;verticalAlign=top;spacingLeft=4;spacingRight=4;overflow=hidden;rotatable=0;points=[[0,0.5],[1,0.5]];portConstraint=eastwest;whiteSpace=wrap;html=1;labelBackgroundColor=none;fontColor=#FFFFFF;rounded=1;" vertex="1" parent="ZTarSemHIilfZT3Sb3_L-44">
          <mxGeometry y="52" width="160" height="26" as="geometry" />
        </mxCell>
        <mxCell id="ZTarSemHIilfZT3Sb3_L-48" value="" style="line;strokeWidth=1;fillColor=none;align=left;verticalAlign=middle;spacingTop=-1;spacingLeft=3;spacingRight=3;rotatable=0;labelPosition=right;points=[];portConstraint=eastwest;labelBackgroundColor=none;strokeColor=#EEEEEE;fontColor=#FFFFFF;rounded=1;" vertex="1" parent="ZTarSemHIilfZT3Sb3_L-44">
          <mxGeometry y="78" width="160" height="8" as="geometry" />
        </mxCell>
        <mxCell id="ZTarSemHIilfZT3Sb3_L-49" value="+RegistroVenta()" style="text;strokeColor=none;fillColor=none;align=left;verticalAlign=top;spacingLeft=4;spacingRight=4;overflow=hidden;rotatable=0;points=[[0,0.5],[1,0.5]];portConstraint=eastwest;whiteSpace=wrap;html=1;labelBackgroundColor=none;fontColor=#FFFFFF;rounded=1;" vertex="1" parent="ZTarSemHIilfZT3Sb3_L-44">
          <mxGeometry y="86" width="160" height="26" as="geometry" />
        </mxCell>
        <mxCell id="6bT-CCXkzcgCeVcVH5FZ-18" value="" style="endArrow=block;endSize=16;endFill=0;html=1;rounded=1;labelBackgroundColor=none;fontColor=default;strokeColor=#182E3E;" edge="1" parent="1" source="ZTarSemHIilfZT3Sb3_L-15" target="ZTarSemHIilfZT3Sb3_L-1">
          <mxGeometry width="160" relative="1" as="geometry">
            <mxPoint x="-700" y="480" as="sourcePoint" />
            <mxPoint x="-540" y="480" as="targetPoint" />
          </mxGeometry>
        </mxCell>
        <mxCell id="6bT-CCXkzcgCeVcVH5FZ-20" value="" style="endArrow=block;endSize=16;endFill=0;html=1;rounded=1;labelBackgroundColor=none;fontColor=default;strokeColor=#182E3E;" edge="1" parent="1" source="ZTarSemHIilfZT3Sb3_L-5" target="ZTarSemHIilfZT3Sb3_L-1">
          <mxGeometry width="160" relative="1" as="geometry">
            <mxPoint x="-720" y="420" as="sourcePoint" />
            <mxPoint x="-620" y="170" as="targetPoint" />
          </mxGeometry>
        </mxCell>
        <mxCell id="6bT-CCXkzcgCeVcVH5FZ-24" value="" style="endArrow=open;html=1;endSize=12;startArrow=diamondThin;startSize=14;startFill=0;edgeStyle=orthogonalEdgeStyle;align=left;verticalAlign=bottom;rounded=1;labelBackgroundColor=none;fontColor=default;strokeColor=#182E3E;" edge="1" parent="1" source="ZTarSemHIilfZT3Sb3_L-5" target="ZTarSemHIilfZT3Sb3_L-22">
          <mxGeometry x="-1" y="3" relative="1" as="geometry">
            <mxPoint x="-770" y="330" as="sourcePoint" />
            <mxPoint x="-610" y="330" as="targetPoint" />
          </mxGeometry>
        </mxCell>
        <mxCell id="6bT-CCXkzcgCeVcVH5FZ-26" value="" style="endArrow=open;html=1;endSize=12;startArrow=diamondThin;startSize=14;startFill=0;edgeStyle=orthogonalEdgeStyle;align=left;verticalAlign=bottom;rounded=1;labelBackgroundColor=none;fontColor=default;strokeColor=#182E3E;" edge="1" parent="1" source="ZTarSemHIilfZT3Sb3_L-22" target="ZTarSemHIilfZT3Sb3_L-44">
          <mxGeometry x="-1" y="3" relative="1" as="geometry">
            <mxPoint x="-110" y="398" as="sourcePoint" />
            <mxPoint x="-200" y="560" as="targetPoint" />
            <Array as="points">
              <mxPoint x="-362" y="581" />
              <mxPoint x="-362" y="579" />
            </Array>
          </mxGeometry>
        </mxCell>
        <mxCell id="6bT-CCXkzcgCeVcVH5FZ-30" value="" style="endArrow=none;html=1;edgeStyle=orthogonalEdgeStyle;rounded=1;labelBackgroundColor=none;fontColor=default;strokeColor=#182E3E;" edge="1" parent="1" source="ZTarSemHIilfZT3Sb3_L-15" target="ZTarSemHIilfZT3Sb3_L-28">
          <mxGeometry relative="1" as="geometry">
            <mxPoint x="-80" y="227" as="sourcePoint" />
            <mxPoint x="-10" y="240" as="targetPoint" />
            <Array as="points">
              <mxPoint x="-280" y="153" />
            </Array>
          </mxGeometry>
        </mxCell>
        <mxCell id="6bT-CCXkzcgCeVcVH5FZ-31" value="" style="endArrow=none;html=1;rounded=1;labelBackgroundColor=none;fontColor=default;strokeColor=#182E3E;" edge="1" parent="1" source="ZTarSemHIilfZT3Sb3_L-5" target="ZTarSemHIilfZT3Sb3_L-28">
          <mxGeometry relative="1" as="geometry">
            <mxPoint x="-420" y="132" as="sourcePoint" />
            <mxPoint x="-350" y="145" as="targetPoint" />
          </mxGeometry>
        </mxCell>
        <mxCell id="berYsUQgV9qlgqdOJt_c-2" value="" style="endArrow=none;html=1;edgeStyle=orthogonalEdgeStyle;rounded=1;labelBackgroundColor=none;fontColor=default;strokeColor=#182E3E;" edge="1" parent="1" source="ZTarSemHIilfZT3Sb3_L-32" target="ZTarSemHIilfZT3Sb3_L-28">
          <mxGeometry relative="1" as="geometry">
            <mxPoint x="-214" y="194" as="sourcePoint" />
            <mxPoint x="-104" y="302" as="targetPoint" />
            <Array as="points">
              <mxPoint x="-104" y="330" />
            </Array>
          </mxGeometry>
        </mxCell>
      </root>
    </mxGraphModel>
  </diagram>
</mxfile>
